<mxfile host="app.diagrams.net" modified="2024-03-24T13:47:42.266Z" agent="Mozilla/5.0 (Macintosh; Intel Mac OS X 10_15_7) AppleWebKit/537.36 (KHTML, like Gecko) Chrome/122.0.0.0 Safari/537.36" version="23.1.7" etag="U88yEn-ACERim0XyNxIw" type="github">
  <diagram name="Page-1" id="qE1THBUPbM_lZ4AqLlo9">
    <mxGraphModel>
      <root>
        <mxCell id="0" />
        <mxCell id="1" parent="0" />
      </root>
    </mxGraphModel>
  </diagram>
</mxfile>
